<?xml version="1.0" encoding="UTF-8"?>
<!-- Generator: visioncortex VTracer 0.6.5 -->
<svg version="1.1" xmlns="http://www.w3.org/2000/svg" width="800" height="800">
<path d="M0 0 C264 0 528 0 800 0 C800 264 800 528 800 800 C536 800 272 800 0 800 C0 536 0 272 0 0 Z " fill="#FDFDFD" transform="translate(0,0)"/>
<path d="M0 0 C0.42 0 0.42 0 2.54 0.01 C3.42 0.01 4.3 0.01 5.2 0.01 C8.12 0.01 11.03 0.02 13.95 0.03 C15.97 0.03 17.98 0.03 20 0.03 C25.32 0.03 30.64 0.04 35.95 0.06 C41.38 0.07 46.8 0.07 52.22 0.08 C62.87 0.09 73.52 0.1 84.16 0.12 C84.42 0.91 84.67 1.69 84.93 2.5 C88.09 12.14 88.09 12.14 89.77 15.94 C91.22 19.26 92.38 22.58 93.5 26.02 C93.71 26.65 93.92 27.28 94.13 27.93 C95.01 30.6 95.88 33.27 96.75 35.94 C99.08 43.03 101.42 50.08 104.31 56.97 C105.54 60.09 106.46 63.28 107.36 66.51 C108.23 69.33 109.26 72.08 110.31 74.85 C111.93 79.16 113.41 83.52 114.91 87.87 C115.62 89.92 116.33 91.96 117.04 94 C117.22 94.51 117.22 94.51 118.11 97.1 C119.99 102.51 121.89 107.91 123.79 113.31 C125.37 117.8 126.88 122.29 128.35 126.81 C129.7 130.93 131.33 134.82 133.16 138.75 C134.22 141.26 135.02 143.78 135.79 146.4 C136.05 147.29 136.31 148.18 136.58 149.09 C136.67 149.43 136.67 149.43 137.16 151.12 C138.05 151.14 138.94 151.15 139.85 151.17 C172.13 151.76 172.13 151.76 185.16 155.12 C186.1 155.32 187.03 155.51 187.99 155.71 C200.94 158.64 212.92 165.88 223.16 174.12 C223.66 174.51 223.66 174.51 226.16 176.49 C235.03 184.27 240.99 194.19 245.16 205.12 C245.58 206.14 245.99 207.16 246.41 208.21 C252.22 224.85 250.96 245.1 243.84 261.09 C234.11 280.05 218.58 295.28 199.16 304.12 C198.5 304.12 197.84 304.12 197.16 304.12 C206.87 330.11 206.87 330.11 210.6 338.94 C214.54 348.31 218.12 357.84 221.29 367.5 C223.24 373.44 225.53 379.19 227.93 384.96 C231.38 393.26 234.77 401.57 237.88 410.01 C239.24 413.69 240.64 417.34 242.09 420.99 C242.42 421.8 242.74 422.62 243.07 423.45 C243.7 425.03 244.34 426.61 244.98 428.19 C246.4 431.76 247.16 434.23 247.16 438.12 C217.79 438.12 188.42 438.12 158.16 438.12 C139.35 383.14 139.35 383.14 136.16 369.12 C135.86 369.07 135.86 369.07 134.29 368.79 C129.24 367.85 124.45 366.65 119.6 364.96 C114.5 363.2 109.33 361.67 104.16 360.12 C103.4 359.89 102.64 359.66 101.85 359.42 C90.52 356.01 79.24 353.19 67.62 350.99 C63.99 350.3 60.42 349.49 56.85 348.56 C34.26 342.76 34.26 342.76 23.23 346.96 C17.01 349.24 10.69 351.02 4.29 352.75 C2.1 353.34 -0.08 353.94 -2.27 354.54 C-3.22 354.8 -4.17 355.05 -5.15 355.32 C-7.79 356.11 -10.29 357.08 -12.84 358.12 C-16.46 359 -20.15 359.53 -23.84 360.12 C-24.61 360.25 -25.38 360.38 -26.17 360.5 C-28.79 360.93 -31.4 361.34 -34.02 361.75 C-34.87 361.88 -35.71 362.02 -36.58 362.16 C-41.73 362.94 -46.63 363.26 -51.84 363.12 C-52 363.67 -52.15 364.22 -52.32 364.79 C-54.8 373.23 -57.62 381.54 -60.43 389.88 C-63.06 397.7 -65.61 405.53 -67.98 413.44 C-68.7 415.69 -69.49 417.79 -70.46 419.94 C-71.76 422.95 -72.55 425.74 -73.21 428.94 C-74.12 432.1 -75.54 435.1 -76.84 438.12 C-106.87 438.12 -136.9 438.12 -167.84 438.12 C-167.05 433.41 -166 429.22 -164.46 424.75 C-164.24 424.08 -164.01 423.42 -163.78 422.73 C-162.44 418.82 -161.06 414.93 -159.58 411.07 C-158.29 407.71 -157.08 404.32 -155.86 400.94 C-155.22 399.19 -154.58 397.43 -153.94 395.68 C-151.66 389.47 -149.46 383.24 -147.27 377 C-146.98 376.16 -146.69 375.33 -146.39 374.47 C-144.49 369.04 -142.64 363.59 -140.84 358.12 C-141.85 357.78 -142.87 357.44 -143.91 357.09 C-162.34 350.7 -176.14 340.34 -185.84 323.12 C-189.21 315.96 -191.65 309.07 -191.84 301.12 C-191.87 300.2 -191.91 299.28 -191.95 298.33 C-192.27 284.57 -189.56 271.7 -181.84 260.12 C-182.2 257.12 -183.35 255.07 -185.06 252.61 C-185.51 251.95 -185.96 251.28 -186.43 250.6 C-186.91 249.88 -187.4 249.17 -187.9 248.44 C-193.46 239.99 -198.17 231.56 -201.84 222.12 C-202.17 221.27 -202.51 220.42 -202.85 219.54 C-211.58 196.29 -213.53 165.45 -203.84 142.12 C-203.67 141.68 -203.67 141.68 -202.82 139.46 C-201.93 137.27 -200.93 135.21 -199.84 133.12 C-199.43 132.3 -199.02 131.48 -198.61 130.64 C-181.64 97.76 -151.1 76.38 -116.71 64.5 C-115.51 64.09 -114.32 63.67 -113.09 63.25 C-89.69 55.51 -64.3 54.3 -40.84 62.12 C-38.44 62.35 -36.05 62.53 -33.65 62.69 C-32.38 62.77 -31.1 62.85 -29.79 62.94 C-28.82 63 -27.84 63.06 -26.84 63.12 C-26.73 62.52 -26.62 61.91 -26.51 61.28 C-25.35 55.12 -23.75 49.3 -21.71 43.37 C-21.41 42.48 -21.11 41.59 -20.8 40.67 C-18.17 32.97 -15.41 25.31 -12.59 17.67 C-10.78 12.75 -9.05 7.83 -7.46 2.83 C-6.09 -0.92 -3.61 0.01 0 0 Z " fill="#043E62" transform="translate(363.8359375,151.87557983398438)"/>
<path d="M0 0 C2.14 2.09 4.18 4.1 5.99 6.48 C5.99 7.14 5.99 7.8 5.99 8.48 C6.65 8.48 7.31 8.48 7.99 8.48 C12.22 16.33 16.03 23.5 16.99 32.48 C17.13 33.53 17.27 34.57 17.42 35.65 C19.06 50.64 16.02 62.81 7.99 75.48 C7.3 76.6 6.6 77.71 5.89 78.85 C5.26 79.72 4.64 80.59 3.99 81.48 C3.33 81.48 2.67 81.48 1.99 81.48 C1.96 81.08 1.96 81.08 1.83 79.03 C0.79 68.83 -2.67 62.15 -10.41 55.39 C-27.5 42.69 -47.84 43.54 -67.95 46.36 C-77.01 47.91 -85.62 50.62 -94.31 53.58 C-98.51 55.01 -102.75 56.3 -107.01 57.55 C-110.5 58.6 -113.6 59.64 -116.7 61.55 C-119.56 63.22 -121.57 64.01 -124.7 64.86 C-129.8 66.28 -134.23 68.5 -138.91 70.93 C-142.96 72.96 -147.11 74.64 -151.32 76.31 C-154.01 77.48 -154.01 77.48 -156.61 79.13 C-159.01 80.48 -159.01 80.48 -163.01 80.48 C-163.01 81.14 -163.01 81.8 -163.01 82.48 C-163.89 82.85 -164.78 83.21 -165.69 83.59 C-174.07 87.1 -182.08 90.94 -189.89 95.61 C-192.95 97.43 -195.94 98.88 -199.26 100.11 C-204.42 102.1 -209.21 104.63 -214.07 107.23 C-220.89 110.88 -227.76 114.32 -234.78 117.57 C-243.39 121.56 -251.9 125.78 -260.28 130.21 C-263.01 131.48 -263.01 131.48 -266.01 131.48 C-266.01 132.14 -266.01 132.8 -266.01 133.48 C-266.81 133.79 -267.61 134.09 -268.43 134.4 C-274.05 136.55 -279.65 138.72 -285.2 141.05 C-286.19 141.46 -287.18 141.87 -288.2 142.3 C-289.92 143.03 -291.64 143.76 -293.35 144.51 C-304.82 149.39 -317.5 153.24 -330.01 153.48 C-330.98 153.51 -331.96 153.54 -332.96 153.57 C-335.98 153.61 -338.99 153.57 -342.01 153.48 C-342.46 153.48 -342.46 153.48 -344.76 153.43 C-357.41 152.79 -371.21 147.07 -379.82 137.61 C-380.91 136.25 -381.97 134.88 -383.01 133.48 C-383.48 132.88 -383.96 132.28 -384.45 131.65 C-392.35 120.51 -391.75 106.99 -389.64 94.18 C-389.06 91.67 -388.28 89.72 -387.01 87.48 C-384.4 88.51 -381.84 89.57 -379.3 90.77 C-362.56 97.97 -343.65 95.9 -327.01 89.48 C-325.97 89.09 -324.94 88.69 -323.87 88.29 C-320.88 87.08 -317.95 85.8 -315.01 84.48 C-313.78 83.95 -312.55 83.42 -311.32 82.89 C-302.16 78.96 -293.14 74.77 -284.14 70.49 C-282.04 69.5 -279.94 68.52 -277.83 67.55 C-269.59 63.74 -261.54 59.69 -253.53 55.41 C-245.25 51.02 -236.78 47.02 -228.31 43.01 C-224.16 41.04 -220.04 39.01 -215.95 36.92 C-207.34 32.58 -198.53 28.67 -189.74 24.71 C-185.99 23.02 -182.26 21.31 -178.53 19.6 C-175.23 18.14 -171.88 16.82 -168.52 15.51 C-165.93 14.45 -163.42 13.29 -160.89 12.11 C-154.97 9.38 -148.91 7.14 -142.8 4.89 C-139.8 3.79 -136.84 2.63 -133.89 1.42 C-125.49 -1.96 -117.07 -5.32 -108.16 -7.02 C-106.01 -7.52 -106.01 -7.52 -102.46 -8.94 C-97.36 -10.89 -92.13 -11.74 -86.76 -12.64 C-84.82 -12.98 -82.88 -13.31 -80.93 -13.65 C-80.08 -13.79 -79.23 -13.93 -78.36 -14.08 C-76.87 -14.36 -75.39 -14.67 -73.93 -15.05 C-49.46 -21.02 -19.39 -16.2 0 0 Z " fill="#47A638" transform="translate(579.01171875,335.515625)"/>
<path d="M0 0 C0.74 0.08 1.48 0.17 2.25 0.25 C6.53 0.8 10.19 1.67 14.19 3.38 C20.13 5.87 25.6 5.4 31.93 5 C37.29 5.36 40.09 7.56 43.64 11.47 C43.91 11.85 43.91 11.85 45.31 13.75 C45.87 14.5 46.43 15.26 47.01 16.03 C47.54 16.76 48.08 17.5 48.62 18.25 C48.91 18.61 48.91 18.61 50.33 20.41 C51.62 22.25 51.62 22.25 51.62 24.25 C52.18 24.52 52.74 24.79 53.31 25.06 C55.62 26.25 55.62 26.25 57.81 27.81 C61.09 29.49 63.61 29.65 67.25 29.75 C70.82 30.5 72.89 31.84 75.62 34.25 C76.28 37.68 76.28 37.68 76.12 41.56 C76.09 42.84 76.06 44.11 76.03 45.43 C75.61 49.39 75.23 52.59 73.62 56.25 C70.61 57.85 70.61 57.85 66.81 58.88 C65.44 59.27 64.08 59.66 62.71 60.06 C62.02 60.25 61.34 60.44 60.63 60.64 C57.65 61.55 54.81 62.74 51.94 63.94 C30.78 72.11 7.18 68.74 -13.38 60.25 C-17.23 58.16 -20.81 55.8 -24.38 53.25 C-25.11 52.76 -25.85 52.27 -26.61 51.76 C-28.24 50.66 -29.82 49.46 -31.38 48.25 C-31.38 47.59 -31.38 46.93 -31.38 46.25 C-30.38 46.25 -29.39 46.25 -28.38 46.25 C-28.38 45.59 -28.38 44.93 -28.38 44.25 C-30.29 44.48 -32.21 44.73 -34.12 45 C-35.19 45.14 -36.26 45.28 -37.36 45.42 C-40.77 46.36 -42.13 47.57 -44.38 50.25 C-43.38 49.92 -42.39 49.59 -41.38 49.25 C-38.12 48.5 -38.12 48.5 -34.38 49.25 C-27.38 57.54 -27.38 57.54 -27.38 62.25 C-27.08 62.38 -27.08 62.38 -25.61 63.03 C-23.19 64.35 -21.56 65.8 -19.62 67.75 C-19.01 68.36 -18.4 68.97 -17.77 69.59 C-16.38 71.25 -16.38 71.25 -16.38 73.25 C-15.69 73.48 -15.01 73.7 -14.31 73.94 C-11.84 75.04 -10.13 76.09 -8 77.69 C1.98 84.99 13.76 86.74 25.81 86.44 C26.86 86.42 27.91 86.41 28.99 86.4 C31.53 86.36 34.08 86.31 36.62 86.25 C36.58 85.18 36.54 84.1 36.5 83 C36.66 78.12 38.01 76.25 40.62 72.25 C42.61 72.25 44.59 72.25 46.62 72.25 C45.75 78 45.75 78 44.62 80.25 C44.43 83.01 44.31 85.76 44.2 88.52 C43.46 92.02 42.51 93.15 39.62 95.25 C23.18 100.17 3.86 96.2 -11.38 89.25 C-12.4 88.86 -13.42 88.47 -14.47 88.06 C-21.58 85.33 -27.34 81.85 -33.38 77.25 C-34.42 76.5 -35.46 75.74 -36.54 74.96 C-48.15 66.47 -56.77 56.42 -64.38 44.25 C-62.21 50.08 -59.94 55.16 -56.38 60.25 C-56.38 60.91 -56.38 61.57 -56.38 62.25 C-57.03 62.35 -57.68 62.45 -58.36 62.55 C-69.97 64.45 -80 68.32 -90.34 73.76 C-93.38 75.25 -93.38 75.25 -95.72 75.77 C-96.27 75.93 -96.81 76.09 -97.38 76.25 C-97.54 76.75 -97.54 76.75 -98.38 79.25 C-100.41 81 -100.41 81 -102.88 82.81 C-107.27 86.05 -107.27 86.05 -108.38 88.25 C-109.03 88.25 -109.69 88.25 -110.38 88.25 C-110.65 88.85 -110.92 89.45 -111.21 90.07 C-112.38 92.25 -112.38 92.25 -115.06 95.19 C-124.67 106.37 -127.53 119.17 -130.38 133.25 C-131.03 132.92 -131.69 132.59 -132.38 132.25 C-138.56 113.48 -135.02 89.03 -126.97 71.3 C-120.84 59.57 -113.67 49.65 -104.38 40.25 C-103.61 39.41 -102.84 38.57 -102.05 37.71 C-90.63 25.51 -76.44 17.16 -61.38 10.25 C-60.55 9.84 -59.72 9.44 -58.87 9.02 C-48.94 4.25 -38.38 2.08 -27.56 0.5 C-26.69 0.37 -25.82 0.24 -24.92 0.11 C-16.52 -1.02 -8.41 -0.97 0 0 Z " fill="#47A538" transform="translate(304.375,217.75)"/>
<path d="M0 0 C0.51 0.57 1.02 1.13 1.54 1.72 C1.21 2.38 0.88 3.04 0.54 3.72 C-0.27 3.11 -1.09 2.51 -1.93 1.88 C-5.72 -0.64 -9.64 -1.77 -14.02 -2.91 C-14.82 -3.12 -15.61 -3.33 -16.43 -3.55 C-33.03 -7.85 -48.57 -8.13 -65.46 -5.28 C-66.91 -5.06 -68.36 -4.84 -69.81 -4.62 C-83.51 -2.52 -96.57 1.07 -109.77 5.22 C-110.23 5.36 -110.23 5.36 -112.52 6.08 C-117.86 7.79 -123.07 9.69 -128.26 11.82 C-130.31 12.66 -132.38 13.45 -134.46 14.22 C-141.28 16.76 -147.95 19.39 -154.42 22.73 C-156.63 23.8 -158.86 24.7 -161.15 25.59 C-176.37 31.57 -190.94 39.24 -205.31 47 C-208.44 48.68 -211.57 50.27 -214.84 51.66 C-220.02 53.86 -224.93 56.58 -229.89 59.23 C-236.68 62.85 -243.56 66.3 -250.46 69.72 C-253.07 71.01 -255.67 72.3 -258.27 73.59 C-258.93 73.92 -259.59 74.25 -260.27 74.58 C-266.16 77.54 -271.99 80.62 -277.79 83.75 C-287.06 88.72 -287.06 88.72 -291.46 88.72 C-291.46 89.38 -291.46 90.04 -291.46 90.72 C-298.73 94.03 -306.09 97.07 -313.54 99.97 C-315.37 100.68 -317.19 101.41 -319.01 102.14 C-327.43 105.38 -335.48 106.99 -344.46 107.72 C-345.43 107.8 -346.4 107.89 -347.39 107.97 C-361.47 108.61 -373 102.05 -383.65 93.47 C-384.58 92.56 -385.5 91.65 -386.46 90.72 C-386.46 89.73 -386.46 88.74 -386.46 87.72 C-383.85 88.74 -381.29 89.8 -378.75 91.01 C-362.01 98.21 -343.1 96.14 -326.46 89.72 C-325.42 89.32 -324.39 88.93 -323.32 88.52 C-320.33 87.32 -317.4 86.03 -314.46 84.72 C-313.23 84.19 -312 83.66 -310.77 83.13 C-301.61 79.19 -292.59 75 -283.59 70.73 C-281.49 69.73 -279.39 68.76 -277.28 67.79 C-269.04 63.98 -260.98 59.92 -252.98 55.65 C-244.7 51.25 -236.23 47.25 -227.76 43.24 C-223.6 41.27 -219.49 39.24 -215.4 37.16 C-206.79 32.81 -197.98 28.9 -189.19 24.95 C-185.44 23.26 -181.71 21.55 -177.98 19.84 C-174.68 18.37 -171.33 17.06 -167.97 15.74 C-165.38 14.69 -162.86 13.53 -160.34 12.34 C-154.42 9.62 -148.35 7.38 -142.25 5.12 C-139.25 4.02 -136.29 2.86 -133.34 1.66 C-124.94 -1.73 -116.52 -5.08 -107.6 -6.78 C-105.46 -7.28 -105.46 -7.28 -101.91 -8.7 C-96.81 -10.66 -91.58 -11.51 -86.21 -12.41 C-84.27 -12.74 -82.33 -13.08 -80.38 -13.41 C-79.53 -13.56 -78.68 -13.7 -77.81 -13.85 C-76.32 -14.12 -74.84 -14.44 -73.38 -14.81 C-50.01 -20.52 -18.05 -16.73 0 0 Z " fill="#83BD4D" transform="translate(578.4609375,335.28125)"/>
<path d="M0 0 C-0.89 0.7 -1.77 1.39 -2.68 2.11 C-5.91 4.81 -8.54 7.84 -11.06 11.19 C-11.5 11.76 -11.93 12.33 -12.37 12.91 C-15.34 16.9 -17.88 20.92 -19.88 25.49 C-20.57 27.02 -21.29 28.55 -22.07 30.04 C-25.69 37.57 -25.58 45.14 -25.47 53.31 C-25.44 55.67 -25.45 58.02 -25.46 60.37 C-25.44 72.39 -24.73 84.19 -19 95 C-18.57 96.11 -18.13 97.23 -17.69 98.38 C-14.17 105.93 -8.75 112.08 -2.19 117.19 C-1.47 117.79 -0.74 118.38 0 119 C0 119.66 0 120.32 0 121 C-11.24 125.11 -24.08 125.76 -35.21 121.07 C-46.87 115.31 -53.65 103.88 -58 92 C-58.72 89.33 -59.23 86.66 -59.69 83.94 C-59.81 83.19 -59.94 82.45 -60.07 81.69 C-63.11 62.31 -60.35 41.46 -48.7 25.18 C-47.54 23.73 -46.28 22.35 -45 21 C-44.34 21 -43.68 21 -43 21 C-42.75 20.41 -42.5 19.82 -42.25 19.21 C-36.54 9.08 -21.4 3.8 -10.95 0.76 C-3.5 -1.17 -3.5 -1.17 0 0 Z " fill="#C3D888" transform="translate(246,293)"/>
<path d="M0 0 C2 1 2 1 2.68 2.79 C2.89 3.58 3.1 4.37 3.31 5.19 C4.54 9.55 5.96 13.8 7.5 18.06 C10.07 25.18 12.55 32.24 14.5 39.56 C15.54 43.44 16.74 47.15 18.2 50.89 C19.5 54.3 20.61 57.77 21.75 61.24 C22.75 64.23 23.76 67.21 24.78 70.2 C25.09 71.12 25.41 72.04 25.73 73 C26.36 74.84 26.99 76.68 27.63 78.53 C29.27 83.37 30.48 87.91 31 93 C30.02 93.39 29.04 93.77 28.04 94.17 C19.18 97.68 10.43 101.24 1.94 105.56 C-1.59 107.35 -5.1 108.86 -8.82 110.2 C-16.9 113.17 -24.66 116.72 -32.31 120.67 C-34.83 121.92 -37.37 122.99 -40 124 C-39.28 118.42 -37.61 113.27 -35.88 107.94 C-35.57 106.98 -35.26 106.03 -34.94 105.05 C-34.3 103.05 -33.65 101.05 -32.99 99.05 C-32.33 97.02 -31.67 94.99 -31.02 92.96 C-30.08 90.05 -29.14 87.15 -28.19 84.25 C-27.9 83.35 -27.61 82.45 -27.31 81.53 C-27.04 80.7 -26.76 79.87 -26.48 79.02 C-26.24 78.29 -26 77.56 -25.76 76.81 C-25 75 -25 75 -23 73 C-22.65 73.38 -22.65 73.38 -20.88 75.31 C-16.05 79.83 -12.53 81.17 -6 81 C-6.65 80.31 -7.3 79.63 -7.97 78.92 C-8.8 78.02 -9.64 77.12 -10.5 76.19 C-11.34 75.29 -12.17 74.4 -13.03 73.48 C-15 71 -15 71 -15 68 C-14.11 67.95 -13.22 67.9 -12.3 67.85 C-11.13 67.78 -9.96 67.7 -8.75 67.62 C-8.17 67.59 -8.17 67.59 -5.23 67.41 C-2.29 67.04 -0.5 66.52 2 65 C0.85 64.92 -0.31 64.83 -1.5 64.75 C-7.79 63.97 -13.16 61.04 -18 57 C-17.21 52.33 -15.77 47.93 -14.31 43.44 C-9.93 29.71 -5.65 15.94 -2 2 C-1.34 2 -0.68 2 0 2 C0 1.34 0 0.68 0 0 Z " fill="#F9FAF8" transform="translate(403,233)"/>
<path d="M0 0 C0.99 0.33 1.98 0.66 3 1 C4.03 3.77 4.87 6.41 5.62 9.25 C5.84 10.01 6.06 10.78 6.28 11.57 C7.34 15.35 8.3 19.13 9 23 C8.66 23.18 8.66 23.18 6.93 24.11 C5.92 24.65 4.91 25.19 3.88 25.75 C3.59 25.9 3.59 25.9 2.15 26.67 C-1.6 28.69 -5.33 30.73 -9.06 32.79 C-20.48 39.08 -32 45.1 -43.7 50.85 C-45.91 51.95 -48.09 53.08 -50.28 54.22 C-57.89 58.18 -65.33 61.31 -73.52 63.86 C-76.6 64.87 -79.44 66.04 -82.38 67.38 C-108.54 78.55 -139.59 83.95 -168 83 C-167 81 -167 81 -164.41 80.11 C-163.86 79.95 -163.86 79.95 -161.06 79.19 C-155.78 77.64 -151.12 75.72 -146.26 73.15 C-144.2 72.1 -142.18 71.27 -140 70.5 C-135.96 69.06 -132.21 67.15 -128.39 65.2 C-125.31 63.66 -122.18 62.33 -119 61 C-118.28 60.61 -117.56 60.22 -116.81 59.81 C-115 59 -115 59 -111 59 C-110.67 58.01 -110.34 57.02 -110 56 C-107.45 54.65 -104.95 53.46 -102.31 52.31 C-95.46 49.22 -89.03 45.81 -82.54 42.01 C-78.05 39.41 -73.4 37.15 -68.75 34.86 C-64.91 32.97 -61.12 31.01 -57.38 28.94 C-49.88 24.79 -42.24 20.76 -34.33 17.48 C-31 16 -31 16 -29.17 14.59 C-26.56 12.68 -23.9 11.45 -20.96 10.12 C-19.8 9.59 -18.65 9.06 -17.46 8.52 C-16.25 7.98 -15.05 7.43 -13.81 6.88 C-11.42 5.79 -9.03 4.71 -6.64 3.62 C-5.59 3.14 -4.53 2.66 -3.44 2.17 C-1 1 -1 1 0 0 Z " fill="#C2D888" transform="translate(463,417)"/>
<path d="M0 0 C2.25 1.1 4.23 2.36 6.27 3.8 C11.68 7.61 17.55 10.27 23.52 13.05 C24.63 13.57 25.74 14.09 26.88 14.62 C29.25 15.65 31.37 16.42 33.9 16.93 C34.08 20.65 33.61 23.19 32.14 26.59 C29.95 31.79 28 37.06 26.09 42.37 C25.39 44.29 24.7 46.21 24 48.13 C23.65 49.09 23.3 50.05 22.95 51.04 C21.3 55.59 19.63 60.14 17.96 64.68 C17.67 65.48 17.37 66.29 17.07 67.11 C15.02 72.69 15.02 72.69 13.9 74.93 C1.44 73.82 -9.75 68.24 -18.1 58.93 C-18.78 58.19 -19.46 57.44 -20.16 56.68 C-26.43 47.78 -27.65 38.61 -26.1 27.93 C-22.98 16.7 -13.96 8.44 -4.98 1.52 C-2.1 -0.07 -2.1 -0.07 0 0 Z " fill="#FBFBFB" transform="translate(264.1015625,298.0703125)"/>
<path d="M0 0 C0.37 0.04 0.37 0.04 2.25 0.25 C6.53 0.8 10.19 1.67 14.19 3.38 C20.13 5.87 25.6 5.4 31.93 5 C37.29 5.36 40.09 7.56 43.64 11.47 C43.91 11.85 43.91 11.85 45.31 13.75 C45.87 14.5 46.43 15.26 47.01 16.03 C47.54 16.76 48.08 17.5 48.62 18.25 C48.91 18.61 48.91 18.61 50.33 20.41 C51.62 22.25 51.62 22.25 51.62 24.25 C52.18 24.52 52.74 24.79 53.31 25.06 C55.62 26.25 55.62 26.25 57.81 27.81 C61.13 29.51 63.79 29.65 67.46 29.93 C70.34 30.35 72.32 31.54 74.62 33.25 C74.29 34.24 73.97 35.23 73.62 36.25 C72.97 36.25 72.31 36.25 71.62 36.25 C71.62 35.59 71.62 34.93 71.62 34.25 C61.54 34.93 61.54 34.93 57.38 36.38 C52.93 37.79 49.57 37.25 45.43 35.12 C39.41 31.37 33.72 26.54 30.56 20.07 C29.62 18.25 29.62 18.25 27.62 17.25 C27.29 18.9 26.97 20.55 26.62 22.25 C25.53 21.53 24.44 20.81 23.31 20.06 C6.01 10.47 -15.31 9.25 -34.38 12.25 C-34.85 12.32 -34.85 12.32 -37.28 12.7 C-52.14 15.35 -66.36 21.05 -79.31 28.69 C-82.64 30.65 -85.98 32.59 -89.38 34.44 C-92.25 36.17 -94.02 37.89 -96.38 40.25 C-98.15 41.7 -99.95 43.14 -101.75 44.56 C-107.91 49.57 -112.33 54.46 -116.38 61.25 C-117.08 61.91 -117.78 62.57 -118.5 63.25 C-120.38 65.25 -120.38 65.25 -120.88 67.88 C-120.96 68.27 -120.96 68.27 -121.38 70.25 C-123.44 71.56 -123.44 71.56 -125.38 72.25 C-122.85 54.74 -103.58 37.3 -90.19 26.9 C-81.13 20.18 -71.6 14.94 -61.38 10.25 C-60.55 9.84 -59.72 9.44 -58.87 9.02 C-48.94 4.25 -38.38 2.08 -27.56 0.5 C-26.69 0.37 -25.82 0.24 -24.92 0.11 C-16.52 -1.02 -8.41 -0.97 0 0 Z " fill="#82BC4D" transform="translate(304.375,217.75)"/>
<path d="M0 0 C0.38 0.11 0.38 0.11 2.32 0.66 C13.33 3.52 23.77 3.78 35 2 C35.18 3.01 35.36 4.03 35.55 5.07 C35.8 6.42 36.06 7.77 36.31 9.12 C36.37 9.46 36.37 9.46 36.67 11.14 C37.51 15.54 38.87 19.08 41 23 C41.43 24.11 41.87 25.23 42.31 26.38 C45.83 33.93 51.25 40.08 57.81 45.19 C58.53 45.79 59.26 46.38 60 47 C60 47.66 60 48.32 60 49 C48.76 53.11 35.92 53.76 24.79 49.07 C15.32 44.39 9.52 36.33 5 27 C4.44 25.87 3.89 24.73 3.31 23.56 C0.43 15.75 -0.32 8.29 0 0 Z " fill="#C5D989" transform="translate(186,365)"/>
<path d="M0 0 C2 3 2 3 3.25 6.19 C6.45 13.83 12.34 20.15 18.81 25.19 C19.53 25.79 20.26 26.38 21 27 C21 27.66 21 28.32 21 29 C9.76 33.11 -3.08 33.76 -14.21 29.07 C-22.6 24.93 -28.17 17.85 -33 10 C-32.67 9.34 -32.34 8.68 -32 8 C-30.74 8.33 -29.48 8.66 -28.19 9 C-19.64 10.86 -10.97 11.03 -3 7 C-1.25 5.64 -1.25 5.64 0 4 C0 2.68 0 1.36 0 0 Z " fill="#C0D787" transform="translate(225,385)"/>
<path d="M0 0 C0.25 1.13 0.51 2.26 0.77 3.43 C1.12 4.91 1.46 6.39 1.81 7.88 C1.9 8.25 1.9 8.25 2.31 10.14 C3.66 15.77 3.66 15.77 7 18 C-15.67 24.23 -38.36 28.79 -62 28 C-61 26 -61 26 -58.41 25.11 C-57.31 24.8 -56.2 24.5 -55.06 24.19 C-49.78 22.64 -45.12 20.72 -40.26 18.15 C-38.2 17.1 -36.18 16.27 -34 15.5 C-29.96 14.06 -26.21 12.15 -22.39 10.2 C-19.31 8.66 -16.18 7.33 -13 6 C-12.28 5.61 -11.56 5.22 -10.81 4.81 C-9 4 -9 4 -5 4 C-4.67 3.01 -4.34 2.02 -4 1 C-2 0 -2 0 0 0 Z " fill="#BDD585" transform="translate(357,472)"/>
<path d="M0 0 C2.14 2.14 4.27 4.27 6.38 6.44 C16.25 16.08 26.91 20.32 40 24 C38.22 30.75 36.3 37.41 34 44 C23.6 41.19 14.15 35.56 8.35 26.39 C3.38 17.59 0.6 10.11 0 0 Z " fill="#45A339" transform="translate(232,362)"/>
<path d="M0 0 C1.32 0.65 2.64 1.31 3.94 2 C3.94 2.66 3.94 3.32 3.94 4 C4.52 4.29 5.11 4.57 5.71 4.87 C7.07 5.56 8.43 6.28 9.76 7.04 C14.79 9.81 19.22 10.74 24.94 11 C22.23 13.83 20.95 14.97 16.9 15.1 C15.72 15.09 14.53 15.07 13.31 15.06 C12.12 15.05 10.94 15.04 9.71 15.04 C8.8 15.02 7.88 15.01 6.94 15 C9.73 20.27 12.92 24.59 16.94 29 C10.96 29.5 6.94 28.34 1.94 25 C-0.8 22.27 -2.3 19.53 -3.88 16.06 C-6.04 11.63 -8.71 8.42 -13.06 6 C-16.08 5.27 -18.97 5.01 -22.06 5 C-22.06 4.01 -22.06 3.02 -22.06 2 C-14.26 -2.54 -8.44 -3.7 0 0 Z " fill="#4CA73D" transform="translate(381.0625,286)"/>
<path d="M0 0 C4.64 0.36 7.38 2.72 10.62 5.89 C14.55 10.51 14.71 15.69 14.56 21.54 C14.25 23.81 14.25 23.81 12.69 26.38 C9.43 28.3 7.03 28.75 3.25 28.81 C0.12 27.49 -1.32 26.54 -3.06 23.62 C-3.18 23.33 -3.18 23.33 -3.75 21.81 C-4.41 21.81 -5.07 21.81 -5.75 21.81 C-7.92 15.29 -9.07 9.89 -6.25 3.31 C-3.75 0.81 -3.75 0.81 0 0 Z " fill="#094362" transform="translate(289.75,236.1875)"/>
<path d="M0 0 C0.33 0 0.66 0 1 0 C1 7.92 1 15.84 1 24 C-10.93 27.98 -21.44 26.37 -33 22 C-33.33 22.99 -33.66 23.98 -34 25 C-34 20.38 -34 15.76 -34 11 C-33.67 11.99 -33.34 12.98 -33 14 C-32.34 14 -31.68 14 -31 14 C-31 14.66 -31 15.32 -31 16 C-30.53 16.07 -30.53 16.07 -28.12 16.44 C-25 17 -25 17 -23 18 C-21.59 18.1 -20.17 18.13 -18.75 18.13 C-17.92 18.13 -17.08 18.14 -16.22 18.14 C-15.34 18.13 -14.46 18.13 -13.56 18.12 C-12.69 18.13 -11.82 18.13 -10.92 18.14 C-10.08 18.14 -9.24 18.13 -8.38 18.13 C-7.61 18.13 -6.84 18.13 -6.05 18.13 C-4 18 -4 18 -1 17 C-0.67 11.39 -0.34 5.78 0 0 Z " fill="#86BE52" transform="translate(219,343)"/>
<path d="M0 0 C6.88 -0.57 11.03 0.52 17 4 C17.55 10.62 16.76 15.44 13 21 C12.03 22.03 11.03 23.03 10 24 C9.01 23.67 8.02 23.34 7 23 C5.94 20.81 5.94 20.81 5 18 C4.66 17.01 4.33 16.02 3.98 15 C3.82 14.5 3.82 14.5 3 12 C2.7 11.13 2.39 10.27 2.08 9.38 C0 3.42 0 3.42 0 0 Z " fill="#C0D787" transform="translate(539,394)"/>
<path d="M0 0 C1.67 2.5 2.62 4.41 3.62 7.19 C3.76 7.55 3.76 7.55 4.41 9.36 C4.61 9.9 4.8 10.44 5 11 C3.23 11.81 1.46 12.63 -0.31 13.44 C-1.3 13.89 -2.28 14.34 -3.3 14.81 C-8.15 16.95 -12.27 17.15 -17.5 17.12 C-18.27 17.13 -19.04 17.13 -19.84 17.14 C-23.15 17.13 -25.84 17.05 -29 16 C-30.4 14.04 -31.74 12.05 -33 10 C-32.67 9.34 -32.34 8.68 -32 8 C-30.74 8.33 -29.48 8.66 -28.19 9 C-19.64 10.86 -10.97 11.03 -3 7 C-1.25 5.64 -1.25 5.64 0 4 C0 2.68 0 1.36 0 0 Z " fill="#8AC052" transform="translate(225,385)"/>
<path d="M0 0 C0.5 0.41 0.99 0.82 1.5 1.24 C5.91 4.73 9.4 6.84 15 8 C15.88 8.18 16.76 8.37 17.66 8.55 C20.1 9.06 22.55 9.54 25 10 C24.12 15.75 24.12 15.75 23 18 C22.67 17.67 22.34 17.34 22 17 C19.8 16.51 17.59 16.06 15.38 15.62 C10.22 14.56 5.7 13.35 1 11 C1 10.34 1 9.68 1 9 C-0.32 8.34 -1.64 7.68 -3 7 C-1.12 1.12 -1.12 1.12 0 0 Z " fill="#87BE51" transform="translate(197,319)"/>
<path d="M0 0 C5.42 4.5 7.85 13.52 8.81 20.31 C8.87 21.2 8.94 22.09 9 23 C6.36 23.99 3.72 24.98 1 26 C0.97 25.39 0.95 24.79 0.92 24.16 C0.52 18.23 -0.74 13.46 -3.16 8.03 C-4 6 -4 6 -4 4 C-4.66 3.67 -5.32 3.34 -6 3 C-4.02 2.01 -2.04 1.02 0 0 Z " fill="#86BE51" transform="translate(393,453)"/>
<path d="M0 0 C3.49 2.7 4.41 6.45 5.69 10.5 C5.91 11.18 6.14 11.85 6.37 12.55 C7.32 15.48 8 17.9 8 21 C8.99 21.33 9.98 21.66 11 22 C8.15 24.32 5.46 25.75 2 27 C1.77 25.78 1.55 24.57 1.31 23.31 C0.14 17.89 -1.93 12.92 -4.07 7.82 C-5 5 -5 5 -4 2 C-1.94 0.81 -1.94 0.81 0 0 Z " fill="#4EA440" transform="translate(432,433)"/>
<path d="M0 0 C0.25 1.13 0.51 2.26 0.77 3.43 C1.12 4.91 1.46 6.39 1.81 7.88 C1.98 8.62 2.14 9.37 2.31 10.14 C3.66 15.77 3.66 15.77 7 18 C3.37 18.66 -0.26 19.32 -4 20 C-4.13 19.18 -4.27 18.36 -4.4 17.52 C-4.58 16.44 -4.76 15.36 -4.94 14.25 C-5.11 13.18 -5.29 12.12 -5.46 11.02 C-5.89 8.64 -6.37 6.33 -7 4 C-6.34 4 -5.68 4 -5 4 C-4.67 3.01 -4.34 2.02 -4 1 C-2 0 -2 0 0 0 Z " fill="#89BF53" transform="translate(357,472)"/>
<path d="M0 0 C5.34 4 7.93 9.8 10 16 C10.07 17.73 10.08 19.46 10.06 21.19 C10.05 22.09 10.04 22.99 10.04 23.92 C10.02 24.61 10.01 25.29 10 26 C9.34 26.33 8.68 26.66 8 27 C7.93 26 7.85 25 7.77 23.96 C7.04 16.02 6.28 10.49 0 5 C-3.13 3.44 -6.58 3.6 -10 4 C-10.99 4.66 -11.98 5.32 -13 6 C-12.65 3.45 -12.13 2.15 -10.44 0.19 C-6.84 -1.57 -3.7 -1.19 0 0 Z " fill="#BAD482" transform="translate(296,234)"/>
<path d="M0 0 C0.33 0 0.66 0 1 0 C1 7.92 1 15.84 1 24 C-1.76 25.38 -4.05 25.1 -7.12 25.06 C-8.22 25.05 -9.32 25.04 -10.45 25.04 C-10.87 25.03 -10.87 25.03 -13 25 C-13 23.35 -13 21.7 -13 20 C-11.02 19.5 -11.02 19.5 -1 17 C-0.67 11.39 -0.34 5.78 0 0 Z " fill="#49A33C" transform="translate(219,343)"/>
<path d="M0 0 C1.67 2.5 2.62 4.41 3.62 7.19 C3.89 7.9 4.15 8.62 4.41 9.36 C4.61 9.9 4.8 10.44 5 11 C3.25 11.84 1.5 12.67 -0.25 13.5 C-1.22 13.96 -2.2 14.43 -3.2 14.91 C-6 16 -6 16 -10 16 C-10.33 14.35 -10.66 12.7 -11 11 C-10.46 10.75 -9.91 10.49 -9.36 10.23 C-8.64 9.89 -7.92 9.54 -7.19 9.19 C-6.48 8.85 -5.77 8.51 -5.04 8.17 C-2.92 6.95 -1.49 5.94 0 4 C0 2.68 0 1.36 0 0 Z " fill="#52A840" transform="translate(225,385)"/>
<path d="M0 0 C1.95 1.36 2.88 2.54 3.49 4.84 C4.09 8.78 4.41 11.59 2 15 C1.01 14.67 0.02 14.34 -1 14 C-1.88 11.75 -1.88 11.75 -2.56 9 C-3.25 6.25 -3.25 6.25 -4 4 C-4.66 3.67 -5.32 3.34 -6 3 C-4.02 2.01 -2.04 1.02 0 0 Z " fill="#50A93D" transform="translate(393,453)"/>
<path d="M0 0 C2.52 1.97 2.99 2.97 3.69 6.19 C3.79 7.12 3.89 8.04 4 9 C4.99 9.33 5.98 9.66 7 10 C3.97 12.47 1.81 13.47 -2 15 C-2.66 11.37 -3.32 7.74 -4 4 C-3.34 4 -2.68 4 -2 4 C-1.34 2.68 -0.68 1.36 0 0 Z " fill="#87BF50" transform="translate(436,445)"/>
<path d="M0 0 C0.87 0.7 1.73 1.4 2.62 2.12 C2.62 2.79 2.62 3.44 2.62 4.12 C0.98 4.12 -0.68 4.12 -2.38 4.12 C-2.05 5.12 -1.71 6.11 -1.38 7.12 C-2.04 7.12 -2.69 7.12 -3.38 7.12 C-3.38 6.46 -3.38 5.81 -3.38 5.12 C-5.02 5.45 -6.68 5.79 -8.38 6.12 C-8.7 5.46 -9.04 4.81 -9.38 4.12 C-8.71 3.8 -8.06 3.46 -7.38 3.12 C-10.35 3.12 -13.31 3.12 -16.38 3.12 C-16.05 2.13 -15.71 1.14 -15.38 0.12 C-9.76 -2.36 -5.45 -3.03 0 0 Z " fill="#7EBC4D" transform="translate(329.375,264.875)"/>
<path d="M0 0 C4.29 0.33 8.58 0.66 13 1 C12 7 12 7 11 9 C10.67 8.67 10.34 8.34 10 8 C8.51 7.63 7.01 7.31 5.5 7 C1.11 6.11 1.11 6.11 0 5 C0 3.35 0 1.7 0 0 Z " fill="#4BA73A" transform="translate(209,328)"/>
<path d="M0 0 C0.99 0 1.98 0 3 0 C2.24 4.92 -0.63 8.71 -4.19 12.06 C-6 14 -6 14 -6.5 16.62 C-6.66 17.41 -6.83 18.19 -7 19 C-9.06 20.31 -9.06 20.31 -11 21 C-10.41 16.69 -8.85 13.65 -6.62 9.94 C-6.02 8.92 -5.41 7.89 -4.79 6.84 C-1.61 1.8 -1.61 1.8 0 0 Z " fill="#77B54C" transform="translate(190,269)"/>
<path d="M0 0 C0.29 0.11 0.29 0.11 1.75 0.69 C1.15 7.08 1.15 7.08 -0.56 9.69 C-2.25 10.69 -2.25 10.69 -4.44 10.38 C-5.04 10.15 -5.63 9.92 -6.25 9.69 C-6.5 6.38 -6.5 6.38 -6.25 2.69 C-4.14 0.27 -3.21 -0.45 0 0 Z " fill="#08455E" transform="translate(371.25,257.3125)"/>
<path d="M0 0 C0.6 0.21 1.2 0.41 1.81 0.62 C2.44 3 2.44 3 2.81 5.62 C0.81 7.62 0.81 7.62 -1.75 7.81 C-4.19 7.62 -4.19 7.62 -5.19 6.62 C-5.44 4.19 -5.44 4.19 -5.19 1.62 C-2.19 -0.38 -2.19 -0.38 0 0 Z " fill="#E3EBE2" transform="translate(291.1875,242.375)"/>
<path d="M0 0 C4.38 3.79 6.76 7.29 8 13 C8.22 16.35 8.19 19.65 8 23 C7.34 23.33 6.68 23.66 6 24 C5.96 23.49 5.96 23.49 5.74 20.93 C4.48 8.33 4.48 8.33 -1 3 C-0.67 2.01 -0.34 1.02 0 0 Z " fill="#D9E7C3" transform="translate(298,237)"/>
<path d="M0 0 C0.2 6.05 0.2 6.05 0 8 C-0.66 8.66 -1.32 9.32 -2 10 C-2.99 10 -3.98 10 -5 10 C-7 7 -7 7 -7 4 C-6.34 4 -5.68 4 -5 4 C-4.67 3.01 -4.34 2.02 -4 1 C-2 0 -2 0 0 0 Z " fill="#429742" transform="translate(357,472)"/>
<path d="M0 0 C-0.36 2.63 -0.65 4.53 -2.25 6.69 C-4 8 -4 8 -6.26 8.07 C-6.66 8.01 -6.66 8.01 -8.69 7.69 C-9.5 7.57 -10.3 7.45 -11.14 7.32 C-11.75 7.22 -12.37 7.11 -13 7 C-12.4 6.72 -11.81 6.45 -11.19 6.16 C-9.13 5.07 -7.65 3.94 -5.94 2.38 C-3 0 -3 0 0 0 Z " fill="#0A495D" transform="translate(351,260)"/>
<path d="M0 0 C0.66 0.33 1.32 0.66 2 1 C2.4 7.46 1.59 12.06 -1 18 C-1.33 18 -1.66 18 -2 18 C-2.24 11.6 -1.82 6.15 0 0 Z " fill="#76B749" transform="translate(173,303)"/>
<path d="M0 0 C0.33 0 0.66 0 1 0 C1 7.92 1 15.84 1 24 C0.01 23.67 -0.98 23.34 -2 23 C-1.34 23 -0.68 23 0 23 C0 22.34 0 21.68 0 21 C-1.32 20.67 -2.64 20.34 -4 20 C-4 19.34 -4 18.68 -4 18 C-3.01 17.67 -2.02 17.34 -1 17 C-0.67 11.39 -0.34 5.78 0 0 Z " fill="#4E8C5F" transform="translate(219,343)"/>
<path d="M0 0 C0.66 0.66 1.32 1.32 2 2 C1.88 4 1.88 4 1 6 C-1.06 7.25 -1.06 7.25 -3 8 C-3.66 6.35 -4.32 4.7 -5 3 C-3.35 2.01 -1.7 1.02 0 0 Z " fill="#3E9246" transform="translate(432,433)"/>
<path d="M0 0 C1.32 0 2.64 0 4 0 C4 0.66 4 1.32 4 2 C4.66 2 5.32 2 6 2 C6 1.34 6 0.68 6 0 C6.66 0 7.32 0 8 0 C8 2.64 8 5.28 8 8 C7.34 8 6.68 8 6 8 C5.67 6.68 5.34 5.36 5 4 C4.34 4 3.68 4 3 4 C3 3.01 3 2.02 3 1 C2.01 0.67 1.02 0.34 0 0 Z " fill="#61AF41" transform="translate(372,252)"/>
<path d="M0 0 C0.33 0 0.66 0 1 0 C1 2.31 1 4.62 1 7 C0.34 7.33 0.34 7.33 -3 9 C-2.44 5.66 -1.65 2.97 0 0 Z " fill="#70B24A" transform="translate(182,281)"/>
<path d="M0 0 C1.12 1.56 1.12 1.56 2 4 C1.12 7.75 1.12 7.75 0 11 C-2 8 -2 8 -1.69 4.94 C-1 2 -1 2 0 0 Z " fill="#76B54C" transform="translate(282,237)"/>
<path d="M0 0 C0.33 0 0.66 0 1 0 C1 1.98 1 3.96 1 6 C0.01 6 -0.98 6 -2 6 C-2 6.99 -2 7.98 -2 9 C-2.99 8.67 -3.98 8.34 -5 8 C-5 7.01 -5 6.02 -5 5 C-3.35 5 -1.7 5 0 5 C0 3.35 0 1.7 0 0 Z " fill="#65B241" transform="translate(595,378)"/>
<path d="M0 0 C0.66 1.32 1.32 2.64 2 4 C1.67 4.17 1.67 4.17 0 5 C-2.62 4.06 -2.62 4.06 -5 3 C-3 1 -3 1 0 0 Z " fill="#368C44" transform="translate(393,453)"/>
<path d="M0 0 C1.98 0.66 3.96 1.32 6 2 C6 2.33 6 2.66 6 3 C4.89 3.31 3.77 3.62 2.62 3.94 C-1 5 -1 5 -3 6 C-2.43 3.13 -2.14 2.14 0 0 Z " fill="#ACC97C" transform="translate(286,234)"/>
<path d="M0 0 C2.25 2.69 3.88 4.65 5 8 C4.34 8.66 3.68 9.32 3 10 C0 3.38 0 3.38 0 0 Z " fill="#1B6355" transform="translate(239,260)"/>
</svg>
